# xmcd
#
# Track frame offsets: 
#        150
#        18393
#        34081
#        46696
#        62167
#        79448
#        92402
#        113610
#        131893
#        147357
#        169890
#        190909
#        207657
#        219709
#        233845
#        249645
#        265789
#        283411
#        305546
#        322493
#
# Disc length: 4664 seconds
#
# Revision: 0
# Processed by: cddbd v1.5.2PL0 Copyright (c) Steve Scherf et al.
# Submitted via: ExactAudioCopy v0.99pb4
#
DISCID=38123614
DTITLE=Various Artist - Basement Tracks
DYEAR=1900
DGENRE=Soul
TTITLE0=Linda Jones - For Your Precious Love
TTITLE1=J.J Barnes - Time Is Love
TTITLE2=The Chosen Few -  I Can't Take No Chances
TTITLE3=Lezli Valentine - Cowards Way Out
TTITLE4=The Moments - With You
TTITLE5=Lee Moses - What You Don't Want Me To Be
TTITLE6=Candi Staton - Hurry Sundown
TTITLE7=Satisfaction Unlimited - Think Of The Children
TTITLE8=Prophesy - Let Me Keep On Walkin
TTITLE9=Chuck Jackson and Angie B. - And I'm Telling You I'm Not Going
TTITLE10=The Optimistics - Love Is God Almighty
TTITLE11=Mill Street Depo - You Won't Support Me
TTITLE12=Bobby Sheen - Loove Stealing
TTITLE13=Laura Lee - I Can Make It Alone
TTITLE14=Smith Connection - (I've Been A Winner, I've Been A Loser) I'
TTITLE14=ve Been A lover
TTITLE15=The Escorts - Let's MAke Love ( At Home Sometimes)
TTITLE16=Debbie Taylor - Leaving Him Tomorrow
TTITLE17=Benny Johnson - Give It Up
TTITLE18=Universal Mind - For You Girl
TTITLE19=Wanda Robinson - The Meeting Place
EXTD=
EXTT0=
EXTT1=
EXTT2=
EXTT3=
EXTT4=
EXTT5=
EXTT6=
EXTT7=
EXTT8=
EXTT9=
EXTT10=
EXTT11=
EXTT12=
EXTT13=
EXTT14=
EXTT15=
EXTT16=
EXTT17=
EXTT18=
EXTT19=
PLAYORDER=
